<mxfile host="app.diagrams.net" agent="Mozilla/5.0 (X11; Linux x86_64) AppleWebKit/537.36 (KHTML, like Gecko) Chrome/129.0.0.0 Safari/537.36" version="24.7.17">
  <diagram name="페이지-1" id="Dh4Imjj_tjygAGNBDwQ0">
    <mxGraphModel dx="679" dy="759" grid="1" gridSize="10" guides="1" tooltips="1" connect="1" arrows="1" fold="1" page="1" pageScale="1" pageWidth="850" pageHeight="1100" math="0" shadow="0">
      <root>
        <mxCell id="0" />
        <mxCell id="1" parent="0" />
        <mxCell id="xA1ZE_iaB-B1wRLm_vOs-4" value="" style="edgeStyle=orthogonalEdgeStyle;rounded=0;orthogonalLoop=1;jettySize=auto;html=1;" edge="1" parent="1" source="xA1ZE_iaB-B1wRLm_vOs-1" target="xA1ZE_iaB-B1wRLm_vOs-3">
          <mxGeometry relative="1" as="geometry" />
        </mxCell>
        <mxCell id="xA1ZE_iaB-B1wRLm_vOs-1" value="" style="ellipse;whiteSpace=wrap;html=1;aspect=fixed;" vertex="1" parent="1">
          <mxGeometry x="385" y="20" width="80" height="80" as="geometry" />
        </mxCell>
        <mxCell id="xA1ZE_iaB-B1wRLm_vOs-6" value="" style="edgeStyle=orthogonalEdgeStyle;rounded=0;orthogonalLoop=1;jettySize=auto;html=1;" edge="1" parent="1" source="xA1ZE_iaB-B1wRLm_vOs-3" target="xA1ZE_iaB-B1wRLm_vOs-13">
          <mxGeometry relative="1" as="geometry">
            <mxPoint x="440" y="240" as="targetPoint" />
          </mxGeometry>
        </mxCell>
        <mxCell id="xA1ZE_iaB-B1wRLm_vOs-3" value="PIR_PIN = 2&lt;div&gt;LED_PIN = 4&lt;/div&gt;" style="whiteSpace=wrap;html=1;" vertex="1" parent="1">
          <mxGeometry x="365" y="140" width="120" height="60" as="geometry" />
        </mxCell>
        <mxCell id="xA1ZE_iaB-B1wRLm_vOs-8" value="" style="edgeStyle=orthogonalEdgeStyle;rounded=0;orthogonalLoop=1;jettySize=auto;html=1;" edge="1" parent="1" source="xA1ZE_iaB-B1wRLm_vOs-5" target="xA1ZE_iaB-B1wRLm_vOs-7">
          <mxGeometry relative="1" as="geometry" />
        </mxCell>
        <mxCell id="xA1ZE_iaB-B1wRLm_vOs-5" value="PIR_PIN : INPUT&lt;div&gt;LED_PIN : OUTPUT&lt;/div&gt;" style="whiteSpace=wrap;html=1;" vertex="1" parent="1">
          <mxGeometry x="365" y="340" width="120" height="60" as="geometry" />
        </mxCell>
        <mxCell id="xA1ZE_iaB-B1wRLm_vOs-10" value="" style="edgeStyle=orthogonalEdgeStyle;rounded=0;orthogonalLoop=1;jettySize=auto;html=1;" edge="1" parent="1" source="xA1ZE_iaB-B1wRLm_vOs-7" target="xA1ZE_iaB-B1wRLm_vOs-9">
          <mxGeometry relative="1" as="geometry" />
        </mxCell>
        <mxCell id="xA1ZE_iaB-B1wRLm_vOs-7" value="input = digitalRead(PIR_PIN)" style="whiteSpace=wrap;html=1;" vertex="1" parent="1">
          <mxGeometry x="333" y="440" width="185" height="60" as="geometry" />
        </mxCell>
        <mxCell id="xA1ZE_iaB-B1wRLm_vOs-18" value="" style="edgeStyle=orthogonalEdgeStyle;rounded=0;orthogonalLoop=1;jettySize=auto;html=1;" edge="1" parent="1" source="xA1ZE_iaB-B1wRLm_vOs-9" target="xA1ZE_iaB-B1wRLm_vOs-17">
          <mxGeometry relative="1" as="geometry" />
        </mxCell>
        <mxCell id="xA1ZE_iaB-B1wRLm_vOs-33" value="True" style="edgeLabel;html=1;align=center;verticalAlign=middle;resizable=0;points=[];" vertex="1" connectable="0" parent="xA1ZE_iaB-B1wRLm_vOs-18">
          <mxGeometry x="-0.0917" y="3" relative="1" as="geometry">
            <mxPoint as="offset" />
          </mxGeometry>
        </mxCell>
        <mxCell id="xA1ZE_iaB-B1wRLm_vOs-24" value="" style="edgeStyle=orthogonalEdgeStyle;rounded=0;orthogonalLoop=1;jettySize=auto;html=1;" edge="1" parent="1" source="xA1ZE_iaB-B1wRLm_vOs-9" target="xA1ZE_iaB-B1wRLm_vOs-23">
          <mxGeometry relative="1" as="geometry" />
        </mxCell>
        <mxCell id="xA1ZE_iaB-B1wRLm_vOs-9" value="input == HIGH" style="rhombus;whiteSpace=wrap;html=1;" vertex="1" parent="1">
          <mxGeometry x="358.25" y="540" width="134.5" height="80" as="geometry" />
        </mxCell>
        <mxCell id="xA1ZE_iaB-B1wRLm_vOs-14" style="edgeStyle=orthogonalEdgeStyle;rounded=0;orthogonalLoop=1;jettySize=auto;html=1;exitX=0.5;exitY=1;exitDx=0;exitDy=0;entryX=0.5;entryY=0;entryDx=0;entryDy=0;" edge="1" parent="1" source="xA1ZE_iaB-B1wRLm_vOs-13" target="xA1ZE_iaB-B1wRLm_vOs-5">
          <mxGeometry relative="1" as="geometry" />
        </mxCell>
        <mxCell id="xA1ZE_iaB-B1wRLm_vOs-13" value="unsigned long start_time&lt;div&gt;unsigned long end_time&lt;br&gt;&lt;/div&gt;&lt;div&gt;unsigned long time_count&lt;br&gt;&lt;/div&gt;" style="rounded=0;whiteSpace=wrap;html=1;strokeColor=#000000;" vertex="1" parent="1">
          <mxGeometry x="349" y="240" width="152" height="60" as="geometry" />
        </mxCell>
        <mxCell id="xA1ZE_iaB-B1wRLm_vOs-20" value="" style="edgeStyle=orthogonalEdgeStyle;rounded=0;orthogonalLoop=1;jettySize=auto;html=1;" edge="1" parent="1" source="xA1ZE_iaB-B1wRLm_vOs-17" target="xA1ZE_iaB-B1wRLm_vOs-19">
          <mxGeometry relative="1" as="geometry" />
        </mxCell>
        <mxCell id="xA1ZE_iaB-B1wRLm_vOs-17" value="start_time = millis()" style="whiteSpace=wrap;html=1;" vertex="1" parent="1">
          <mxGeometry x="150" y="550" width="131" height="60" as="geometry" />
        </mxCell>
        <mxCell id="xA1ZE_iaB-B1wRLm_vOs-22" value="" style="edgeStyle=orthogonalEdgeStyle;rounded=0;orthogonalLoop=1;jettySize=auto;html=1;" edge="1" parent="1" source="xA1ZE_iaB-B1wRLm_vOs-19" target="xA1ZE_iaB-B1wRLm_vOs-21">
          <mxGeometry relative="1" as="geometry" />
        </mxCell>
        <mxCell id="xA1ZE_iaB-B1wRLm_vOs-19" value="end_time =&amp;nbsp;&lt;div&gt;start_time + 5000&lt;/div&gt;" style="whiteSpace=wrap;html=1;" vertex="1" parent="1">
          <mxGeometry x="150" y="660" width="131" height="60" as="geometry" />
        </mxCell>
        <mxCell id="xA1ZE_iaB-B1wRLm_vOs-21" value="time_count = start_time" style="whiteSpace=wrap;html=1;" vertex="1" parent="1">
          <mxGeometry x="150" y="760" width="131.13" height="60" as="geometry" />
        </mxCell>
        <mxCell id="xA1ZE_iaB-B1wRLm_vOs-26" value="" style="edgeStyle=orthogonalEdgeStyle;rounded=0;orthogonalLoop=1;jettySize=auto;html=1;" edge="1" parent="1" source="xA1ZE_iaB-B1wRLm_vOs-23" target="xA1ZE_iaB-B1wRLm_vOs-25">
          <mxGeometry relative="1" as="geometry" />
        </mxCell>
        <mxCell id="xA1ZE_iaB-B1wRLm_vOs-32" value="True" style="edgeLabel;html=1;align=center;verticalAlign=middle;resizable=0;points=[];" vertex="1" connectable="0" parent="xA1ZE_iaB-B1wRLm_vOs-26">
          <mxGeometry x="-0.1083" relative="1" as="geometry">
            <mxPoint as="offset" />
          </mxGeometry>
        </mxCell>
        <mxCell id="xA1ZE_iaB-B1wRLm_vOs-30" value="" style="edgeStyle=orthogonalEdgeStyle;rounded=0;orthogonalLoop=1;jettySize=auto;html=1;" edge="1" parent="1" source="xA1ZE_iaB-B1wRLm_vOs-23" target="xA1ZE_iaB-B1wRLm_vOs-29">
          <mxGeometry relative="1" as="geometry" />
        </mxCell>
        <mxCell id="xA1ZE_iaB-B1wRLm_vOs-31" value="False" style="edgeLabel;html=1;align=center;verticalAlign=middle;resizable=0;points=[];" vertex="1" connectable="0" parent="xA1ZE_iaB-B1wRLm_vOs-30">
          <mxGeometry x="-0.1156" y="3" relative="1" as="geometry">
            <mxPoint as="offset" />
          </mxGeometry>
        </mxCell>
        <mxCell id="xA1ZE_iaB-B1wRLm_vOs-23" value="time_count &amp;lt;= end_time" style="rhombus;whiteSpace=wrap;html=1;" vertex="1" parent="1">
          <mxGeometry x="335" y="660" width="180" height="80" as="geometry" />
        </mxCell>
        <mxCell id="xA1ZE_iaB-B1wRLm_vOs-28" value="" style="edgeStyle=orthogonalEdgeStyle;rounded=0;orthogonalLoop=1;jettySize=auto;html=1;" edge="1" parent="1" source="xA1ZE_iaB-B1wRLm_vOs-25" target="xA1ZE_iaB-B1wRLm_vOs-27">
          <mxGeometry relative="1" as="geometry" />
        </mxCell>
        <mxCell id="xA1ZE_iaB-B1wRLm_vOs-25" value="digitalWrite(LED_PIN, HIGH)" style="whiteSpace=wrap;html=1;" vertex="1" parent="1">
          <mxGeometry x="340" y="780" width="170" height="60" as="geometry" />
        </mxCell>
        <mxCell id="xA1ZE_iaB-B1wRLm_vOs-37" style="edgeStyle=orthogonalEdgeStyle;rounded=0;orthogonalLoop=1;jettySize=auto;html=1;exitX=1;exitY=0.5;exitDx=0;exitDy=0;entryX=1;entryY=0.5;entryDx=0;entryDy=0;" edge="1" parent="1" source="xA1ZE_iaB-B1wRLm_vOs-27" target="xA1ZE_iaB-B1wRLm_vOs-7">
          <mxGeometry relative="1" as="geometry">
            <Array as="points">
              <mxPoint x="810" y="910" />
              <mxPoint x="810" y="470" />
            </Array>
          </mxGeometry>
        </mxCell>
        <mxCell id="xA1ZE_iaB-B1wRLm_vOs-27" value="time_count += 100&lt;div&gt;delay(100)&lt;/div&gt;" style="whiteSpace=wrap;html=1;" vertex="1" parent="1">
          <mxGeometry x="365" y="880" width="120" height="60" as="geometry" />
        </mxCell>
        <mxCell id="xA1ZE_iaB-B1wRLm_vOs-38" style="edgeStyle=orthogonalEdgeStyle;rounded=0;orthogonalLoop=1;jettySize=auto;html=1;exitX=1;exitY=0.5;exitDx=0;exitDy=0;" edge="1" parent="1" source="xA1ZE_iaB-B1wRLm_vOs-29">
          <mxGeometry relative="1" as="geometry">
            <mxPoint x="520" y="470" as="targetPoint" />
            <Array as="points">
              <mxPoint x="810" y="700" />
              <mxPoint x="810" y="470" />
            </Array>
          </mxGeometry>
        </mxCell>
        <mxCell id="xA1ZE_iaB-B1wRLm_vOs-29" value="digitalWrite(LED_PIN, LOW)" style="whiteSpace=wrap;html=1;" vertex="1" parent="1">
          <mxGeometry x="590" y="670" width="170" height="60" as="geometry" />
        </mxCell>
      </root>
    </mxGraphModel>
  </diagram>
</mxfile>
